<svg xmlns="http://www.w3.org/2000/svg" version="1.1" xmlns:xlink="http://www.w3.org/1999/xlink" xmlns:svgjs="http://svgjs.dev/svgjs" width="1440" height="560" preserveAspectRatio="none" viewBox="0 0 1440 560">
    <g mask="url(&quot;#SvgjsMask1004&quot;)" fill="none">
        <rect width="1440" height="560" x="0" y="0" fill="rgba(244, 242, 237, 1)"></rect>
        <path d="M531.75 177.9 a28.04 28.04 0 1 0 56.08 0 a28.04 28.04 0 1 0 -56.08 0z" stroke="#037b0b"></path>
        <path d="M2.97 239.12L6.75 239.12L6.75 242.9L2.97 242.9z" fill="#037b0b"></path>
        <path d="M548.62 542.24L561.71 542.24L561.71 555.33L548.62 555.33z" stroke="#037b0b"></path>
        <path d="M683.23 480L723.77 480L723.77 504.71L683.23 504.71z" fill="#e73635"></path>
        <path d="M838.07 115.02L892.83 115.02L892.83 169.78L838.07 169.78z" fill="#e73635"></path>
        <path d="M1122.71 310.6 a5.64 5.64 0 1 0 11.28 0 a5.64 5.64 0 1 0 -11.28 0z" fill="#d3b714"></path>
        <path d="M114.78-10.86a48.69 48.69 0 1 0 1.26 97.37z" stroke="#e73635"></path>
        <path d="M90.55 408.28L135.76 408.28L135.76 453.49L90.55 453.49z" stroke="#037b0b"></path>
        <path d="M1206.47 299.63 a52.06 52.06 0 1 0 104.12 0 a52.06 52.06 0 1 0 -104.12 0z" stroke="#d3b714"></path>
        <path d="M1198.76 373.66L1222.6 373.66L1222.6 420.07L1198.76 420.07z" fill="#037b0b"></path>
        <path d="M747.84 547.09L795.25 547.09L795.25 594.5L747.84 594.5z" stroke="#d3b714"></path>
        <path d="M1390.57 206.12L1422.21 206.12L1422.21 237.76L1390.57 237.76z" fill="#d3b714"></path>
        <path d="M30.64 311.63L35.72 311.63L35.72 319.76L30.64 319.76z" stroke="#d3b714"></path>
        <path d="M124.08 276.49L146.57 276.49L146.57 298.98L124.08 298.98z" fill="#d3b714"></path>
        <path d="M851.69 92.45L853.24 92.45L853.24 94L851.69 94z" fill="#d3b714"></path>
        <path d="M1311.57 69.64L1358.57 69.64L1358.57 118.17L1311.57 118.17z" fill="#d3b714"></path>
        <path d="M206.17 255.58L214.78 255.58L214.78 270.69L206.17 270.69z" fill="#d3b714"></path>
        <path d="M820.83 261.05a32.32 32.32 0 1 0 30.74 56.86z" fill="#d3b714"></path>
        <path d="M1325.65 460.67L1365.76 460.67L1365.76 500.78L1325.65 500.78z" stroke="#d3b714"></path>
        <path d="M216.45 388.27L227.41 388.27L227.41 399.23L216.45 399.23z" stroke="#e73635"></path>
        <path d="M957.62 288.95a11.49 11.49 0 1 0-13.47-18.62z" fill="#e73635"></path>
        <path d="M990.89 222.41 a36.27 36.27 0 1 0 72.54 0 a36.27 36.27 0 1 0 -72.54 0z" fill="#037b0b"></path>
        <path d="M441.13 441.24 a49.37 49.37 0 1 0 98.74 0 a49.37 49.37 0 1 0 -98.74 0z" stroke="#d3b714"></path>
        <path d="M960.85 305.05L995.07 305.05L995.07 339.27L960.85 339.27z" fill="#d3b714"></path>
        <path d="M316.4 496.32L339.32 496.32L339.32 519.24L316.4 519.24z" fill="#d3b714"></path>
        <path d="M145.27 403.99L164.57 403.99L164.57 423.29L145.27 423.29z" stroke="#d3b714"></path>
        <path d="M773.93 309.3a10.48 10.48 0 1 0 3.77-20.62z" stroke="#e73635"></path>
        <path d="M327.15 546.1a45.47 45.47 0 1 0-58.61-69.53z" fill="#e73635"></path>
        <path d="M224.35 414.33L266.74 414.33L266.74 456.72L224.35 456.72z" fill="#d3b714"></path>
        <path d="M929.57 232.35L929.99 232.35L929.99 232.77L929.57 232.77z" stroke="#d3b714"></path>
        <path d="M28.97 264.69a8.27 8.27 0 1 0-0.43-16.54z" stroke="#d3b714"></path>
        <path d="M817.17 443.17a2.76 2.76 0 1 0 5.12-2.06z" stroke="#e73635"></path>
        <path d="M302.06 222.69L355.53 222.69L355.53 233.89L302.06 233.89z" fill="#e73635"></path>
    </g>
    <defs>
        <mask id="SvgjsMask1004">
            <rect width="1440" height="560" fill="#ffffff"></rect>
        </mask>
    </defs>
</svg>